<svg
  width="20"
  height="21"
  viewBox="0 0 20 21"
  fill="none"
  xmlns="http://www.w3.org/2000/svg"
>
  <path
    d="M18.6404 7.37499L17.0176 4.56249C16.6695 3.95977 16.0963 3.51996 15.424 3.33976C14.7518 3.15956 14.0354 3.25373 13.4326 3.60155C13.0964 3.7958 12.8081 4.06298 12.5888 4.38343L10.9557 1.56249C10.7252 1.16382 10.3939 0.832809 9.99499 0.602679C9.59611 0.37255 9.1437 0.251404 8.6832 0.251404C8.22269 0.251404 7.77029 0.37255 7.3714 0.602679C6.97252 0.832809 6.6412 1.16382 6.4107 1.56249C5.93133 1.18503 5.33544 0.986354 4.72547 1.0006C4.1155 1.01485 3.52954 1.24113 3.06832 1.64056C2.60709 2.03998 2.29941 2.5876 2.19816 3.18927C2.09691 3.79095 2.20842 4.40911 2.51351 4.93749L2.66257 5.19624C2.27468 5.22632 1.89852 5.34327 1.56195 5.53843C0.959131 5.88666 0.519335 6.46009 0.339301 7.13258C0.159268 7.80507 0.253744 8.52153 0.601947 9.12436L4.35195 15.6231C4.89146 16.563 5.61194 17.3867 6.47171 18.0464C7.33149 18.7062 8.31351 19.189 9.36101 19.4669C10.0619 19.6541 10.7843 19.7486 11.5098 19.7481C12.9567 19.7456 14.3776 19.3626 15.6298 18.6375C16.882 17.9125 17.9215 16.8708 18.6439 15.617C19.3663 14.3633 19.7463 12.9416 19.7457 11.4946C19.7451 10.0476 19.3639 8.62624 18.6404 7.37312V7.37499ZM18.016 13.2475C17.6702 14.5367 16.95 15.6945 15.9463 16.5745C14.9427 17.4544 13.7007 18.0171 12.3773 18.1913C11.0539 18.3654 9.70858 18.1434 8.5114 17.5531C7.31422 16.9628 6.31892 16.0308 5.65132 14.875L1.90132 8.37624C1.75857 8.11829 1.72278 7.81461 1.80165 7.53054C1.88052 7.24647 2.06775 7.00472 2.32305 6.85728C2.57835 6.70985 2.88133 6.66853 3.16679 6.7422C3.45225 6.81588 3.69738 6.99867 3.84945 7.25124L5.65226 10.375C5.70005 10.463 5.76499 10.5406 5.84324 10.6031C5.92149 10.6656 6.01147 10.7118 6.10786 10.739C6.20426 10.7661 6.30512 10.7737 6.4045 10.7613C6.50388 10.7488 6.59976 10.7166 6.68649 10.6665C6.77321 10.6164 6.84903 10.5495 6.90945 10.4696C6.96988 10.3897 7.0137 10.2986 7.03833 10.2015C7.06296 10.1044 7.06789 10.0034 7.05284 9.90438C7.03779 9.80536 7.00306 9.71037 6.9507 9.62499L3.81195 4.18749C3.73485 4.05944 3.68405 3.91732 3.6625 3.76941C3.64095 3.62151 3.64909 3.4708 3.68644 3.32608C3.7238 3.18136 3.78961 3.04553 3.88005 2.92653C3.97048 2.80753 4.08372 2.70774 4.21316 2.633C4.34259 2.55825 4.48562 2.51005 4.63389 2.4912C4.78216 2.47235 4.9327 2.48324 5.07671 2.52323C5.22073 2.56321 5.35534 2.63149 5.47267 2.72408C5.59 2.81667 5.6877 2.93172 5.76007 3.06249L8.68695 8.12499C8.73474 8.213 8.79968 8.29056 8.87793 8.35307C8.95618 8.41558 9.04616 8.46178 9.14255 8.48896C9.23895 8.51613 9.33981 8.52372 9.43919 8.51128C9.53857 8.49885 9.63445 8.46663 9.72117 8.41653C9.8079 8.36644 9.88371 8.29948 9.94414 8.21961C10.0046 8.13975 10.0484 8.04858 10.073 7.9515C10.0976 7.85442 10.1026 7.7534 10.0875 7.65438C10.0725 7.55536 10.0377 7.46037 9.98538 7.37499L7.70913 3.43749C7.63204 3.30944 7.58124 3.16732 7.55969 3.01941C7.53814 2.87151 7.54628 2.7208 7.58363 2.57608C7.62098 2.43136 7.6868 2.29553 7.77723 2.17653C7.86767 2.05753 7.98091 1.95774 8.11034 1.883C8.23978 1.80825 8.3828 1.76005 8.53107 1.7412C8.67935 1.72235 8.82989 1.73324 8.9739 1.77323C9.11792 1.81321 9.25252 1.88149 9.36985 1.97408C9.48718 2.06667 9.58489 2.18172 9.65726 2.31249L12.7904 7.74061C12.0606 8.48168 11.6101 9.45266 11.5154 10.4884C11.4207 11.5242 11.6877 12.5608 12.271 13.4219C12.3829 13.5865 12.5556 13.6999 12.7511 13.7371C12.9466 13.7744 13.1489 13.7325 13.3135 13.6206C13.4781 13.5087 13.5915 13.336 13.6288 13.1405C13.6661 12.945 13.6241 12.7427 13.5123 12.5781C13.0815 11.9402 12.9124 11.1612 13.04 10.4021C13.1676 9.64305 13.582 8.96206 14.1976 8.49999C14.3443 8.38999 14.4456 8.23004 14.4824 8.05038C14.5192 7.87073 14.4889 7.68382 14.3973 7.52499L13.771 6.43749C13.6914 6.30942 13.6383 6.16665 13.6149 6.01766C13.5916 5.86867 13.5984 5.71651 13.635 5.57021C13.6716 5.42391 13.7373 5.28647 13.8281 5.16605C13.9189 5.04563 14.033 4.9447 14.1635 4.86926C14.2941 4.79381 14.4385 4.74539 14.5882 4.72688C14.7379 4.70836 14.8897 4.72013 15.0348 4.76148C15.1798 4.80282 15.315 4.87291 15.4325 4.96757C15.5499 5.06223 15.647 5.17953 15.7182 5.31249L17.341 8.12499C17.7863 8.89158 18.0752 9.73882 18.191 10.6177C18.3069 11.4967 18.2474 12.3898 18.016 13.2456V13.2475ZM15.2729 0.972803C15.3233 0.780746 15.4479 0.616537 15.6193 0.516187C15.7906 0.415836 15.9948 0.387535 16.1869 0.43749C16.9033 0.626267 17.5749 0.955546 18.1628 1.40619C18.7507 1.85683 19.2432 2.41984 19.6116 3.06249L19.6426 3.11593C19.6949 3.2013 19.7297 3.2963 19.7447 3.39532C19.7598 3.49433 19.7548 3.59536 19.7302 3.69244C19.7056 3.78952 19.6618 3.88068 19.6013 3.96055C19.5409 4.04042 19.4651 4.10738 19.3784 4.15747C19.2916 4.20757 19.1958 4.23978 19.0964 4.25222C18.997 4.26466 18.8961 4.25707 18.7997 4.22989C18.7033 4.20272 18.6134 4.15652 18.5351 4.094C18.4569 4.03149 18.3919 3.95394 18.3441 3.86593L18.3132 3.81249C18.0428 3.34152 17.6814 2.92904 17.2501 2.59909C16.8187 2.26914 16.326 2.02831 15.8007 1.89062C15.6092 1.83858 15.4461 1.71277 15.3472 1.54075C15.2483 1.36872 15.2215 1.16449 15.2729 0.972803ZM5.58288 20.2187C5.45975 20.3748 5.2797 20.4756 5.08228 20.499C4.88487 20.5224 4.68625 20.4664 4.53007 20.3434C3.40831 19.4574 2.46638 18.3649 1.75507 17.125C1.70583 17.0397 1.67387 16.9455 1.66102 16.8478C1.64817 16.7502 1.65469 16.6509 1.6802 16.5558C1.7057 16.4606 1.7497 16.3714 1.80968 16.2933C1.86966 16.2151 1.94444 16.1495 2.02976 16.1003C2.11508 16.0511 2.20926 16.0191 2.30693 16.0063C2.4046 15.9934 2.50384 15.9999 2.59899 16.0254C2.69414 16.0509 2.78334 16.0949 2.86149 16.1549C2.93963 16.2149 3.0052 16.2897 3.05445 16.375C3.67096 17.4483 4.48683 18.394 5.4582 19.1612C5.53615 19.2222 5.60125 19.2981 5.64975 19.3844C5.69825 19.4707 5.72918 19.5657 5.74078 19.664C5.75237 19.7623 5.74438 19.862 5.71728 19.9572C5.69019 20.0524 5.64451 20.1413 5.58288 20.2187Z"
    fill="#854EF3"
  />
</svg>